<svg width="55" height="54" viewBox="0 0 55 54" fill="none" xmlns="http://www.w3.org/2000/svg">
<g filter="url(#filter0_ddd_1841_23747)">
<circle cx="27.5" cy="26" r="24" fill="url(#paint0_linear_1841_23747)"/>
<path d="M17.9286 33.6H29.0714C29.2227 33.6 29.3566 33.5491 29.4529 33.4529C29.5491 33.3566 29.6 33.2227 29.6 33.0714C29.6 29.9271 27.1946 27.4 23.5 27.4C19.8054 27.4 17.4 29.9271 17.4 33.0714C17.4 33.2227 17.4509 33.3566 17.5471 33.4529C17.6434 33.5491 17.7773 33.6 17.9286 33.6ZM28.5324 32.5429H18.4696C18.6148 31.4101 19.1135 30.4043 19.9343 29.6747C20.7814 28.9218 21.9781 28.4571 23.5 28.4571C25.022 28.4571 26.2296 28.9219 27.082 29.6749C27.9082 30.4048 28.4067 31.4107 28.5324 32.5429Z" fill="#F3F8FA" stroke="#F3F8FA" stroke-width="0.2"/>
<path d="M20.8286 24.0714C20.8286 25.5409 22.0305 26.7429 23.5 26.7429C24.9695 26.7429 26.1714 25.5409 26.1714 24.0714C26.1714 22.6019 24.9695 21.4 23.5 21.4C22.0305 21.4 20.8286 22.6019 20.8286 24.0714ZM21.8857 24.0714C21.8857 23.1838 22.6124 22.4571 23.5 22.4571C24.3876 22.4571 25.1143 23.1838 25.1143 24.0714C25.1143 24.9591 24.3876 25.6857 23.5 25.6857C22.6124 25.6857 21.8857 24.9591 21.8857 24.0714Z" fill="#F3F8FA" stroke="#F3F8FA" stroke-width="0.2"/>
<path d="M27.8571 28.13H37.1429C37.2795 28.13 37.4035 28.0839 37.4937 27.9937C37.5839 27.9035 37.63 27.7795 37.63 27.6429C37.63 24.9952 35.603 22.87 32.5 22.87C29.397 22.87 27.37 24.9952 27.37 27.6429C27.37 27.7795 27.4161 27.9035 27.5063 27.9937C27.5965 28.0839 27.7205 28.13 27.8571 28.13ZM36.6412 27.1557H28.3613C28.4896 26.2433 28.8976 25.4356 29.5596 24.8472C30.2558 24.2283 31.2416 23.8443 32.5 23.8443C33.7586 23.8443 34.7534 24.2284 35.4541 24.8474C36.1207 25.4363 36.5284 26.244 36.6412 27.1557Z" fill="#F3F8FA" stroke="#F3F8FA" stroke-width="0.26"/>
<path d="M30.2272 20.1429C30.2272 21.3932 31.2497 22.4157 32.5 22.4157C33.7504 22.4157 34.7729 21.3932 34.7729 20.1429C34.7729 18.8925 33.7504 17.87 32.5 17.87C31.2497 17.87 30.2272 18.8925 30.2272 20.1429ZM31.2015 20.1429C31.2015 19.4289 31.7861 18.8443 32.5 18.8443C33.214 18.8443 33.7986 19.4289 33.7986 20.1429C33.7986 20.8568 33.214 21.4414 32.5 21.4414C31.7861 21.4414 31.2015 20.8568 31.2015 20.1429Z" fill="#F3F8FA" stroke="#F3F8FA" stroke-width="0.26"/>
</g>
<defs>
<filter id="filter0_ddd_1841_23747" x="0.5" y="0" width="54" height="54" filterUnits="userSpaceOnUse" color-interpolation-filters="sRGB">
<feFlood flood-opacity="0" result="BackgroundImageFix"/>
<feColorMatrix in="SourceAlpha" type="matrix" values="0 0 0 0 0 0 0 0 0 0 0 0 0 0 0 0 0 0 127 0" result="hardAlpha"/>
<feOffset dy="1"/>
<feGaussianBlur stdDeviation="1.5"/>
<feColorMatrix type="matrix" values="0 0 0 0 0 0 0 0 0 0 0 0 0 0 0 0 0 0 0.2 0"/>
<feBlend mode="normal" in2="BackgroundImageFix" result="effect1_dropShadow_1841_23747"/>
<feColorMatrix in="SourceAlpha" type="matrix" values="0 0 0 0 0 0 0 0 0 0 0 0 0 0 0 0 0 0 127 0" result="hardAlpha"/>
<feOffset dy="2"/>
<feGaussianBlur stdDeviation="0.5"/>
<feColorMatrix type="matrix" values="0 0 0 0 0 0 0 0 0 0 0 0 0 0 0 0 0 0 0.12 0"/>
<feBlend mode="normal" in2="effect1_dropShadow_1841_23747" result="effect2_dropShadow_1841_23747"/>
<feColorMatrix in="SourceAlpha" type="matrix" values="0 0 0 0 0 0 0 0 0 0 0 0 0 0 0 0 0 0 127 0" result="hardAlpha"/>
<feOffset dy="1"/>
<feGaussianBlur stdDeviation="0.5"/>
<feColorMatrix type="matrix" values="0 0 0 0 0 0 0 0 0 0 0 0 0 0 0 0 0 0 0.14 0"/>
<feBlend mode="normal" in2="effect2_dropShadow_1841_23747" result="effect3_dropShadow_1841_23747"/>
<feBlend mode="normal" in="SourceGraphic" in2="effect3_dropShadow_1841_23747" result="shape"/>
</filter>
<linearGradient id="paint0_linear_1841_23747" x1="75.5" y1="26" x2="27.5" y2="-22" gradientUnits="userSpaceOnUse">
<stop stop-color="#21BDB8"/>
<stop offset="1" stop-color="#3957A3"/>
</linearGradient>
</defs>
</svg>
