<svg width="55" height="54" viewBox="0 0 55 54" fill="none" xmlns="http://www.w3.org/2000/svg">
<g filter="url(#filter0_ddd_1841_46510)">
<circle cx="27.5" cy="26" r="24" fill="#F3F8FA"/>
<path d="M21.75 26.6H24.3L23.4 27.425C23.1 27.725 23.025 28.175 23.325 28.475C23.55 28.775 24 28.85 24.375 28.55L26.7 26.375C26.85 26.225 26.925 26 26.925 25.775C26.925 25.55 26.85 25.325 26.7 25.175L24.375 23C24.075 22.7 23.625 22.775 23.325 23.075C23.025 23.375 23.1 23.9 23.4 24.125L24.3 24.95H21.75C21.375 24.95 21 25.325 21 25.7C21 26.3 21.3 26.6 21.75 26.6Z" fill="#605F5E"/>
<path d="M35.25 15.5H18.75C18.225 15.5 18 15.95 18 16.25V35.75C18 36.125 18.15 36.5 18.75 36.5H35.25C35.7 36.5 36 36.125 36 35.75V16.25C36 15.875 35.7 15.5 35.25 15.5ZM28.575 19.625V32.375L19.5 34.775V17.225L28.575 19.625ZM34.5 35H24.6L29.475 33.725C29.775 33.65 30 33.35 30 32.975V19.025C30 18.65 29.775 18.35 29.475 18.275L24.6 17H34.5V35Z" fill="#605F5E"/>
</g>
<defs>
<filter id="filter0_ddd_1841_46510" x="0.5" y="0" width="54" height="54" filterUnits="userSpaceOnUse" color-interpolation-filters="sRGB">
<feFlood flood-opacity="0" result="BackgroundImageFix"/>
<feColorMatrix in="SourceAlpha" type="matrix" values="0 0 0 0 0 0 0 0 0 0 0 0 0 0 0 0 0 0 127 0" result="hardAlpha"/>
<feOffset dy="1"/>
<feGaussianBlur stdDeviation="1.5"/>
<feColorMatrix type="matrix" values="0 0 0 0 0 0 0 0 0 0 0 0 0 0 0 0 0 0 0.2 0"/>
<feBlend mode="normal" in2="BackgroundImageFix" result="effect1_dropShadow_1841_46510"/>
<feColorMatrix in="SourceAlpha" type="matrix" values="0 0 0 0 0 0 0 0 0 0 0 0 0 0 0 0 0 0 127 0" result="hardAlpha"/>
<feOffset dy="2"/>
<feGaussianBlur stdDeviation="0.5"/>
<feColorMatrix type="matrix" values="0 0 0 0 0 0 0 0 0 0 0 0 0 0 0 0 0 0 0.12 0"/>
<feBlend mode="normal" in2="effect1_dropShadow_1841_46510" result="effect2_dropShadow_1841_46510"/>
<feColorMatrix in="SourceAlpha" type="matrix" values="0 0 0 0 0 0 0 0 0 0 0 0 0 0 0 0 0 0 127 0" result="hardAlpha"/>
<feOffset dy="1"/>
<feGaussianBlur stdDeviation="0.5"/>
<feColorMatrix type="matrix" values="0 0 0 0 0 0 0 0 0 0 0 0 0 0 0 0 0 0 0.14 0"/>
<feBlend mode="normal" in2="effect2_dropShadow_1841_46510" result="effect3_dropShadow_1841_46510"/>
<feBlend mode="normal" in="SourceGraphic" in2="effect3_dropShadow_1841_46510" result="shape"/>
</filter>
</defs>
</svg>
