<svg width="55" height="54" viewBox="0 0 55 54" fill="none" xmlns="http://www.w3.org/2000/svg">
<g filter="url(#filter0_ddd_1841_46480)">
<circle cx="27.5" cy="26" r="24" fill="url(#paint0_linear_1841_46480)"/>
<path d="M37.7001 23.225L27.95 16.475C27.725 16.325 27.35 16.325 27.125 16.475L21.5 20.3V18.8C21.5 18.35 21.2 18.05 20.75 18.05C20.3 18.05 20 18.35 20 18.8V21.275L17.3 23.15C16.925 23.375 16.85 23.825 17.075 24.2C17.3 24.575 17.75 24.65 18.125 24.425L27.5 17.975L36.8 24.425C37.25 24.725 37.625 24.5 37.85 24.2C38.075 23.9 38 23.45 37.7001 23.225Z" fill="#F3F8FA"/>
<path d="M34.8501 25.1L27.9501 20.225C27.7251 20.075 27.3501 20.075 27.0501 20.225L20.1501 25.1C19.9251 25.25 19.8501 25.475 19.8501 25.7V34.925C19.8501 35.375 20.1501 35.675 20.6001 35.675H25.2501C25.9251 35.675 26.0751 35.375 26.0751 34.925V30.425C26.0751 29.675 26.6751 29.075 27.4251 29.075C28.1751 29.075 28.7751 29.675 28.7751 30.425V34.925C28.7751 35.3 29.0751 35.675 29.5251 35.675H34.4751C34.9251 35.675 35.2251 35.375 35.2251 34.925V25.7C35.2251 25.475 35.0751 25.25 34.8501 25.1ZM33.6501 34.175H30.2751V30.425C30.2751 28.85 29.0001 27.575 27.4251 27.575C25.8501 27.575 24.5751 28.85 24.5751 30.425V34.175H21.3501V26.075L27.5001 21.725L33.6501 26.075V34.175Z" fill="#F3F8FA"/>
</g>
<defs>
<filter id="filter0_ddd_1841_46480" x="0.5" y="0" width="54" height="54" filterUnits="userSpaceOnUse" color-interpolation-filters="sRGB">
<feFlood flood-opacity="0" result="BackgroundImageFix"/>
<feColorMatrix in="SourceAlpha" type="matrix" values="0 0 0 0 0 0 0 0 0 0 0 0 0 0 0 0 0 0 127 0" result="hardAlpha"/>
<feOffset dy="1"/>
<feGaussianBlur stdDeviation="1.5"/>
<feColorMatrix type="matrix" values="0 0 0 0 0 0 0 0 0 0 0 0 0 0 0 0 0 0 0.2 0"/>
<feBlend mode="normal" in2="BackgroundImageFix" result="effect1_dropShadow_1841_46480"/>
<feColorMatrix in="SourceAlpha" type="matrix" values="0 0 0 0 0 0 0 0 0 0 0 0 0 0 0 0 0 0 127 0" result="hardAlpha"/>
<feOffset dy="2"/>
<feGaussianBlur stdDeviation="0.5"/>
<feColorMatrix type="matrix" values="0 0 0 0 0 0 0 0 0 0 0 0 0 0 0 0 0 0 0.12 0"/>
<feBlend mode="normal" in2="effect1_dropShadow_1841_46480" result="effect2_dropShadow_1841_46480"/>
<feColorMatrix in="SourceAlpha" type="matrix" values="0 0 0 0 0 0 0 0 0 0 0 0 0 0 0 0 0 0 127 0" result="hardAlpha"/>
<feOffset dy="1"/>
<feGaussianBlur stdDeviation="0.5"/>
<feColorMatrix type="matrix" values="0 0 0 0 0 0 0 0 0 0 0 0 0 0 0 0 0 0 0.14 0"/>
<feBlend mode="normal" in2="effect2_dropShadow_1841_46480" result="effect3_dropShadow_1841_46480"/>
<feBlend mode="normal" in="SourceGraphic" in2="effect3_dropShadow_1841_46480" result="shape"/>
</filter>
<linearGradient id="paint0_linear_1841_46480" x1="75.5" y1="26" x2="27.5" y2="-22" gradientUnits="userSpaceOnUse">
<stop stop-color="#21BDB8"/>
<stop offset="1" stop-color="#3957A3"/>
</linearGradient>
</defs>
</svg>
