<svg width="55" height="54" viewBox="0 0 55 54" fill="none" xmlns="http://www.w3.org/2000/svg">
<g filter="url(#filter0_ddd_1841_46501)">
<circle cx="27.5" cy="26" r="24" fill="#F3F8FA"/>
<path d="M25.0302 36.3398C24.6557 36.2649 24.431 35.9653 24.431 35.5909V34.0929C24.0565 33.9431 23.6071 33.7934 23.2327 33.6436L22.1092 34.767C21.8845 34.9917 21.4352 35.0666 21.2105 34.8419C20.1619 34.1678 19.2632 33.2691 18.5142 32.2954C18.2895 31.9958 18.2895 31.5465 18.5891 31.3218L19.6377 30.2732C19.3381 29.749 19.0385 29.1498 18.8887 28.5506H17.3908C17.0163 28.5506 16.7167 28.251 16.6418 27.9515C16.492 27.3523 16.4171 24.8807 16.6418 24.2067C16.7167 23.8322 17.0163 23.6075 17.3908 23.6075H18.8887C19.0385 23.1581 19.1883 22.7087 19.413 22.2594L18.2895 21.061C18.0648 20.8363 17.9899 20.4619 18.2146 20.1623C18.8887 19.1137 19.7874 18.215 20.836 17.466C21.1356 17.2413 21.5101 17.3162 21.8096 17.5409L22.8582 18.5894C23.3825 18.2899 23.9067 18.0652 24.431 17.9154V16.4175C24.431 16.043 24.6557 15.7434 25.0302 15.6685C26.2285 15.4438 27.5766 15.4438 28.775 15.6685C29.1495 15.7434 29.3741 16.043 29.3741 16.4175V17.9154C29.9733 18.0652 30.5725 18.3648 31.0968 18.6643L32.1453 17.6158C32.37 17.3162 32.8194 17.3162 33.119 17.5409C34.1675 18.2899 34.9914 19.1886 35.6654 20.2372C35.8901 20.5367 35.8152 20.9112 35.5905 21.1359L34.4671 22.2594C34.6918 22.6338 34.8416 23.0083 34.9165 23.4577H36.4144C36.7889 23.4577 37.0136 23.7573 37.1633 24.0569C37.4629 24.8807 37.3131 27.1276 37.1633 27.8017C37.0884 28.1761 36.7889 28.4008 36.4144 28.4008H34.9165C34.7667 28.9251 34.542 29.4494 34.2424 29.9737L35.2909 31.0222C35.5156 31.2469 35.5905 31.6963 35.3658 31.9958C34.6169 33.0444 33.7181 33.8682 32.6696 34.6172C32.37 34.8419 31.9955 34.767 31.6959 34.5423L30.7223 33.4938C30.2729 33.7185 29.8235 33.8683 29.3741 34.018V35.516C29.3741 35.8904 29.0746 36.1151 28.775 36.2649C27.9511 36.5645 25.854 36.5645 25.0302 36.3398ZM25.9289 34.9168C26.603 34.9917 27.2771 34.9917 27.8762 34.9168V33.4938C27.8762 33.1193 28.1009 32.8197 28.4754 32.7448C29.2244 32.595 29.8984 32.2954 30.4976 31.921C30.7972 31.7712 31.1717 31.7712 31.3963 31.9958L32.4449 33.0444C32.9692 32.6699 33.4185 32.1456 33.8679 31.6963L32.8194 30.6477C32.5947 30.423 32.5198 29.9737 32.7445 29.749C33.1938 29.0749 33.4934 28.3259 33.6432 27.577C33.7181 27.2025 34.0177 26.9778 34.3922 26.9778H35.8152C35.8901 26.6782 35.8901 25.3301 35.8152 25.0305H34.3922C34.0177 25.0305 33.7181 24.8058 33.6432 24.4313C33.4934 23.7573 33.2687 23.1581 32.8943 22.5589C32.7445 22.2594 32.7445 21.8849 33.0441 21.6602L34.0926 20.6116C33.7181 20.0874 33.2687 19.638 32.7445 19.1886L31.7708 20.1623C31.5461 20.387 31.0968 20.4619 30.7972 20.2372C30.0482 19.7878 29.2993 19.4133 28.4754 19.1886C28.1009 19.1137 27.8762 18.8141 27.8762 18.4397V17.0915C27.2022 17.0166 26.5281 17.0166 25.9289 17.0915V18.5146C25.9289 18.889 25.7042 19.1886 25.3298 19.2635C24.5808 19.4133 23.8318 19.7878 23.1578 20.1623C22.8582 20.387 22.4837 20.3121 22.259 20.0874L21.2105 19.0388C20.6862 19.4882 20.2368 19.9376 19.7874 20.4619L20.836 21.5104C21.0607 21.7351 21.1356 22.1096 20.9109 22.4091C20.6113 23.0832 20.3117 23.7573 20.1619 24.4313C20.087 24.8058 19.7874 25.0305 19.413 25.0305H17.9899C17.8401 25.3301 17.8401 26.6782 17.9899 26.9778H19.413C19.7874 26.9778 20.087 27.2025 20.1619 27.577C20.3866 28.4008 20.6862 29.1498 21.2105 29.8988C21.4352 30.1983 21.3603 30.5728 21.1356 30.8724L20.1619 31.8461C20.6113 32.3703 21.0607 32.8197 21.585 33.1942L22.6335 32.1456C22.8582 31.921 23.2327 31.8461 23.5323 31.9958C24.1314 32.3703 24.7306 32.595 25.4047 32.7448C25.7791 32.8197 26.0038 33.1193 26.0038 33.4938V34.9168H25.9289Z" fill="#605F5E"/>
<path d="M26.9025 30.4979C24.4309 30.4979 22.4087 28.4757 22.4087 26.0042C22.4087 23.5326 24.4309 21.5104 26.9025 21.5104C29.374 21.5104 31.3962 23.5326 31.3962 26.0042C31.3962 28.4757 29.374 30.4979 26.9025 30.4979ZM26.9025 23.0083C25.2547 23.0083 23.9066 24.3564 23.9066 26.0042C23.9066 27.6519 25.2547 29 26.9025 29C28.5502 29 29.8983 27.6519 29.8983 26.0042C29.8983 24.3564 28.5502 23.0083 26.9025 23.0083Z" fill="#605F5E"/>
</g>
<defs>
<filter id="filter0_ddd_1841_46501" x="0.5" y="0" width="54" height="54" filterUnits="userSpaceOnUse" color-interpolation-filters="sRGB">
<feFlood flood-opacity="0" result="BackgroundImageFix"/>
<feColorMatrix in="SourceAlpha" type="matrix" values="0 0 0 0 0 0 0 0 0 0 0 0 0 0 0 0 0 0 127 0" result="hardAlpha"/>
<feOffset dy="1"/>
<feGaussianBlur stdDeviation="1.5"/>
<feColorMatrix type="matrix" values="0 0 0 0 0 0 0 0 0 0 0 0 0 0 0 0 0 0 0.2 0"/>
<feBlend mode="normal" in2="BackgroundImageFix" result="effect1_dropShadow_1841_46501"/>
<feColorMatrix in="SourceAlpha" type="matrix" values="0 0 0 0 0 0 0 0 0 0 0 0 0 0 0 0 0 0 127 0" result="hardAlpha"/>
<feOffset dy="2"/>
<feGaussianBlur stdDeviation="0.5"/>
<feColorMatrix type="matrix" values="0 0 0 0 0 0 0 0 0 0 0 0 0 0 0 0 0 0 0.12 0"/>
<feBlend mode="normal" in2="effect1_dropShadow_1841_46501" result="effect2_dropShadow_1841_46501"/>
<feColorMatrix in="SourceAlpha" type="matrix" values="0 0 0 0 0 0 0 0 0 0 0 0 0 0 0 0 0 0 127 0" result="hardAlpha"/>
<feOffset dy="1"/>
<feGaussianBlur stdDeviation="0.5"/>
<feColorMatrix type="matrix" values="0 0 0 0 0 0 0 0 0 0 0 0 0 0 0 0 0 0 0.14 0"/>
<feBlend mode="normal" in2="effect2_dropShadow_1841_46501" result="effect3_dropShadow_1841_46501"/>
<feBlend mode="normal" in="SourceGraphic" in2="effect3_dropShadow_1841_46501" result="shape"/>
</filter>
</defs>
</svg>
