<svg width="80" height="80" viewBox="0 0 80 80" fill="none" xmlns="http://www.w3.org/2000/svg">
<path d="M72.4368 40C72.4368 57.673 58.1097 72 40.4368 72C22.7638 72 8.43677 57.673 8.43677 40C8.43677 22.327 22.7638 8 40.4368 8C58.1097 8 72.4368 22.327 72.4368 40Z" fill="#A1C5D8"/>
<path d="M68.5184 40.0001C68.5184 47.5011 65.5974 54.5532 60.2934 59.8567C54.9898 65.1608 47.9378 68.0817 40.4367 68.0817C39.7153 68.0817 39.1306 67.497 39.1306 66.7756C39.1306 66.0542 39.7153 65.4695 40.4367 65.4695C54.4806 65.4695 65.9061 54.044 65.9061 40.0001C65.9061 25.9562 54.4806 14.5307 40.4367 14.5307C26.3929 14.5307 14.9673 25.9562 14.9673 40.0001C14.9673 40.7215 14.3827 41.3062 13.6612 41.3062C12.9398 41.3062 12.3551 40.7215 12.3551 40.0001C12.3551 32.4991 15.276 25.447 20.5801 20.1435C25.8837 14.8394 32.9357 11.9185 40.4367 11.9185C47.9378 11.9185 54.9898 14.8394 60.2934 20.1435C65.5974 25.447 68.5184 32.4991 68.5184 40.0001Z" fill="#134153"/>
<path d="M46.9674 66.6449C46.9674 68.8092 45.2133 70.5633 43.049 70.5633H37.8245C35.6602 70.5633 33.9061 68.8092 33.9061 66.6449C33.9061 64.4812 35.6602 62.7266 37.8245 62.7266H43.049C45.2133 62.7266 46.9674 64.4806 46.9674 66.6449Z" fill="#146F9D"/>
<path d="M17.7102 36.6038V47.0527C17.7102 47.7742 17.1255 48.3589 16.4041 48.3589H10.9184C8.75408 48.3589 7 46.6048 7 44.4405V39.216C7 37.0517 8.75408 35.2976 10.9184 35.2976H11.975C12.102 35.2976 12.2102 35.2068 12.2321 35.0818L12.5847 33.0823C12.7679 32.0435 13.724 31.2905 14.7704 31.4247C15.8878 31.5675 16.6464 32.6119 16.4536 33.7083L16.173 35.2976H16.4041C17.1255 35.2976 17.7102 35.8823 17.7102 36.6038ZM69.9551 35.2976H68.8985C68.7714 35.2976 68.6633 35.2068 68.6413 35.0818L68.2888 33.0823C68.1056 32.0435 67.1495 31.2905 66.1031 31.4247C64.9857 31.5675 64.227 32.6119 64.4199 33.7083L64.7005 35.2976H64.3388C63.6173 35.2976 63.0326 35.8823 63.0326 36.6038V47.0527C63.0326 47.7742 63.6173 48.3589 64.3388 48.3589H69.9551C72.1194 48.3589 73.8735 46.6048 73.8735 44.4405V39.216C73.8735 37.0517 72.1194 35.2976 69.9551 35.2976Z" fill="#174677"/>
<path d="M17.7102 36.604V47.053C17.7102 47.7744 17.1255 48.3591 16.404 48.3591H14.8367C12.6724 48.3591 10.9183 46.605 10.9183 44.4407V39.2162C10.9183 37.0524 12.6724 35.2979 14.8367 35.2979H16.404C17.1255 35.2979 17.7102 35.8825 17.7102 36.604ZM66.0367 35.2979H64.3387C63.6173 35.2979 63.0326 35.8825 63.0326 36.604V47.053C63.0326 47.7744 63.6173 48.3591 64.3387 48.3591H66.0367C68.201 48.3591 69.9551 46.605 69.9551 44.4407V39.2162C69.9551 37.0519 68.201 35.2979 66.0367 35.2979Z" fill="#5D7EA0"/>
<path d="M46.9674 66.6448C46.9674 68.8091 45.2133 70.5632 43.049 70.5632H41.7429C39.5786 70.5632 37.8245 68.8091 37.8245 66.6448C37.8245 64.481 39.5786 62.7264 41.7429 62.7264H43.049C45.2133 62.7264 46.9674 64.4805 46.9674 66.6448ZM17.449 35.2979H14.8368V48.3591H17.449C18.1705 48.3591 18.7552 47.7744 18.7552 47.053V36.604C18.7552 35.8825 18.1705 35.2979 17.449 35.2979ZM63.4245 35.2979C62.7031 35.2979 62.1184 35.8825 62.1184 36.604V47.053C62.1184 47.7744 62.7031 48.3591 63.4245 48.3591H66.0368V35.2979H63.4245Z" fill="#ADE4F2"/>
<path d="M18.7552 36.604V42.4815C18.7552 43.5637 17.8781 44.4407 16.796 44.4407C15.7138 44.4407 14.8368 43.5637 14.8368 42.4815V35.2979H17.449C18.1705 35.2979 18.7552 35.8825 18.7552 36.604ZM63.4245 35.2979C62.7031 35.2979 62.1184 35.8825 62.1184 36.604V42.4815C62.1184 43.5637 62.9955 44.4407 64.0776 44.4407C65.1598 44.4407 66.0368 43.5637 66.0368 42.4815V35.2979H63.4245Z" fill="#8AD8ED"/>
<path d="M44.074 54.0887L42.1612 56.9576C41.8832 57.3744 41.5209 57.7173 41.1051 57.9703C40.6959 58.2193 40.1776 58.2193 39.7679 57.9703C39.3526 57.7173 38.9903 57.3744 38.7123 56.9576L36.7995 54.0887C29.5332 52.4351 24.1102 45.9356 24.1102 38.1693C24.1102 29.152 31.4199 21.8428 40.4368 21.8428C49.4536 21.8428 56.7633 29.152 56.7633 38.1693C56.7633 45.9356 51.3403 52.4351 44.074 54.0887Z" fill="#DC6243"/>
<path d="M56.7633 38.1693C56.7633 41.7443 55.6133 45.0509 53.6638 47.7402C50.9745 49.6897 47.6684 50.8397 44.0929 50.8397C35.0761 50.8397 27.7664 43.53 27.7664 34.5132C27.7664 30.9377 28.9164 27.6315 30.8658 24.9423C33.5551 22.9928 36.8613 21.8428 40.4368 21.8428C49.4536 21.8428 56.7633 29.1525 56.7633 38.1693Z" fill="#E6917B"/>
<path d="M38.0857 31.1186C38.0857 29.8201 39.1382 28.7676 40.4367 28.7676C41.7352 28.7676 42.7877 29.8201 42.7877 31.1186C42.7877 32.4171 41.7352 33.4696 40.4367 33.4696C39.1382 33.4696 38.0857 32.4171 38.0857 31.1186ZM40.4367 35.037C39.3546 35.037 38.4775 35.914 38.4775 36.9961V46.139C38.4775 47.2211 39.3546 48.0982 40.4367 48.0982C41.5189 48.0982 42.3959 47.2211 42.3959 46.139V36.9961C42.3959 35.914 41.5189 35.037 40.4367 35.037Z" fill="#FDF3E3"/>
<path d="M39.6531 31.1186C39.6531 30.0951 40.3082 29.2273 41.2204 28.9043C42.1327 29.2273 42.7878 30.0951 42.7878 31.1186C42.7878 32.1421 42.1327 33.0099 41.2204 33.3329C40.3082 33.0099 39.6531 32.1421 39.6531 31.1186ZM41.2204 35.2012C40.5286 35.5033 40.0449 36.1931 40.0449 36.9961V46.139C40.0449 46.9421 40.5286 47.6318 41.2204 47.9339C41.9123 47.6318 42.3959 46.9421 42.3959 46.139V36.9961C42.3959 36.1931 41.9123 35.5033 41.2204 35.2012Z" fill="#FFFEFE"/>
</svg>
