<svg xmlns="http://www.w3.org/2000/svg" viewBox="0 0 586.41 110.74"><g id="Layer_2" data-name="Layer 2"><g id="Layer_1-2" data-name="Layer 1"><rect y="95.15" width="73.55" height="13.52" style="fill:#009dd1"/><path d="M84.09,108.68V7.37H123q17.5,0,27.77,8.42T161,40.66Q161,57,150.74,65.53T123,74H108.4V89.47a19.21,19.21,0,0,1-19.21,19.21ZM108.4,52.89H123c4.38,0,7.68-1.22,9.93-3.66a12.31,12.31,0,0,0,3.35-8.57A12.54,12.54,0,0,0,132.9,32c-2.25-2.46-5.55-3.7-9.93-3.7H108.4Z" style="fill:#fff"/><path d="M0,7.37V47A36.77,36.77,0,0,0,36.77,83.74h0A36.78,36.78,0,0,0,73.55,47V7.37ZM58.21,43a4.33,4.33,0,0,1-4.34,4.33H43.55V57.69A4.33,4.33,0,0,1,39.22,62H34.33A4.33,4.33,0,0,1,30,57.69V47.36H19.68A4.33,4.33,0,0,1,15.34,43V38.15a4.34,4.34,0,0,1,4.34-4.34H30V23.49a4.33,4.33,0,0,1,4.33-4.34h4.89a4.33,4.33,0,0,1,4.33,4.34V33.81H53.87a4.34,4.34,0,0,1,4.34,4.34Z" style="fill:#fff"/><path d="M168.88,7.39H184V51h47.54V7.39h15V108.68h-15V64.16H184v44.52H168.88Z" style="fill:#fff"/><path d="M300.17,95.32a20.68,20.68,0,0,1-22.1-.2,19.94,19.94,0,0,1-6.63-9,36,36,0,0,1-2.23-13h51.44a52.38,52.38,0,0,0-.52-15.9,38.66,38.66,0,0,0-5.37-13.79,28.9,28.9,0,0,0-10.25-9.7,30.43,30.43,0,0,0-15.27-3.62,33.14,33.14,0,0,0-30.45,18.72q-4.61,9-4.61,21.67a45.32,45.32,0,0,0,4.65,21,35.82,35.82,0,0,0,12.61,14.16,32.3,32.3,0,0,0,17.8,5.08,36.37,36.37,0,0,0,15.23-3.06,28.6,28.6,0,0,0,11-8.62A28.22,28.22,0,0,0,321,86H305.54A13.62,13.62,0,0,1,300.17,95.32ZM271.51,54.58a20.74,20.74,0,0,1,6.8-8.95,18.26,18.26,0,0,1,11.17-3.34,16.18,16.18,0,0,1,8.79,2.19,15.1,15.1,0,0,1,5.36,5.8,25.11,25.11,0,0,1,2.59,7.91,41.91,41.91,0,0,1,.49,6.21H269.3A31.16,31.16,0,0,1,271.51,54.58Z" style="fill:#fff"/><path d="M390.64,42.77a23.39,23.39,0,0,0-11-9.58,40.9,40.9,0,0,0-16.37-3.06,56,56,0,0,0-17.37,2.43,23.45,23.45,0,0,0-11.57,7.67q-4.14,5.25-4.14,13.67h16.7a11.25,11.25,0,0,1,2.11-7,12.7,12.7,0,0,1,5.8-4.17,23.88,23.88,0,0,1,8.47-1.39q8.42,0,12.32,4.25t3.89,13.64v9.12a95.36,95.36,0,0,0-10.09-2.52,62.59,62.59,0,0,0-11.93-1.12,47.73,47.73,0,0,0-15.74,2.39A22.72,22.72,0,0,0,331,74.37q-3.86,4.89-3.86,12.44a22.82,22.82,0,0,0,12.64,20.56q6.36,3.38,16,3.37a26,26,0,0,0,14.79-4.09,26.53,26.53,0,0,0,9.34-10.81l.06-.14,1.41,13h13.2V59.62Q394.58,49.3,390.64,42.77ZM369.78,96.31a20.46,20.46,0,0,1-10.66,2.75q-8.26,0-12.08-3.62a11.47,11.47,0,0,1-3.82-8.63q0-6.82,4.85-9.7a23.52,23.52,0,0,1,12.09-2.86,59.42,59.42,0,0,1,10.45,1,63.36,63.36,0,0,1,8.86,2.21v3.71a15.63,15.63,0,0,1-2.54,8.27A20.52,20.52,0,0,1,369.78,96.31Z" style="fill:#fff"/><path d="M406.58,108.68V0h15.11V108.68Z" style="fill:#fff"/><path d="M476.14,96a58.21,58.21,0,0,1-6.67,2,27,27,0,0,1-6.05.68q-10.1,0-10.09-10.81V42.45H476V32.2H453.33V11.37h-15V32.2H426.62V42.45H438.3V88.33q0,7.55,3.06,12.52a19.09,19.09,0,0,0,8.31,7.43,27.4,27.4,0,0,0,11.77,2.46,31.33,31.33,0,0,0,8.54-1.15,73.55,73.55,0,0,0,8.31-2.9Z" style="fill:#fff"/><path d="M550.48,46a26.12,26.12,0,0,0-9.74-11.73q-6.4-4.12-15.63-4.13a26.62,26.62,0,0,0-16.21,5,28.85,28.85,0,0,0-8.59,10.52V0h-15.1V108.68h15.1V73.38a44.82,44.82,0,0,1,2.58-16.18,22,22,0,0,1,7.32-10.1,18.31,18.31,0,0,1,11.09-3.45q8,0,12.76,5.12t4.73,15.07v44.84h15V63.84A44.15,44.15,0,0,0,550.48,46Z" style="fill:#fff"/><polygon points="559.3 97.2 563.52 97.2 563.52 108.68 566 108.68 566 97.2 570.22 97.2 570.22 95.06 559.3 95.06 559.3 97.2" style="fill:#fff"/><polygon points="582.99 95.06 579.25 103.16 575.52 95.06 571.97 95.06 571.97 108.68 574.45 108.68 574.45 98.46 578.43 107.19 580.05 107.19 583.91 98.73 583.91 108.68 586.41 108.68 586.41 95.06 582.99 95.06" style="fill:#fff"/></g></g></svg>