<?xml version="1.0" encoding="utf-8"?>
<!-- Generator: Adobe Illustrator 26.0.3, SVG Export Plug-In . SVG Version: 6.00 Build 0)  -->
<svg version="1.1" xmlns="http://www.w3.org/2000/svg" xmlns:xlink="http://www.w3.org/1999/xlink" x="0px" y="0px"
	 viewBox="70 70 618.4 215.2" style="enable-background:new 0 0 728.4 355.2;" xml:space="preserve">
<style type="text/css">
	.st0{fill:#FFFFFF;}
	.st1{fill:#DC6243;}
	.st2{fill:#009DD1;}
</style>
<g id="Layer_1">
	<path class="st0" d="M107.4,119.7h0.4c8.4-11.2,18.8-15.9,31.8-15.9c14.5,0,27,5.9,34.3,19.2c6.9-12.5,20.4-19.2,34.1-19.2
		c25.5,0,34.3,16.6,34.3,39.8v64h-35.7v-48c0-10.4,0.4-27.4-14.7-27.4c-16.5,0-17,15.5-17,27.4v48h-35.6v-48
		c0-11.2,0-28.3-15.9-28.3c-15.9,0-15.9,17.1-15.9,28.3v48H71.7V107.2h35.6V119.7z"/>
	<path class="st0" d="M366.5,207.7h-35.6v-11.2h-0.4c-6.3,10-18.6,14.5-30.3,14.5c-29.8,0-50.7-24.9-50.7-53.7
		c0-28.8,20.6-53.5,50.3-53.5c11.6,0,23.7,4.3,31.1,13.1v-9.8h35.6V207.7z M286.2,157.5c0,12.7,8.4,22.5,22.9,22.5
		c14.5,0,22.9-9.8,22.9-22.5c0-12.3-8.4-22.7-22.9-22.7C294.6,134.8,286.2,145.2,286.2,157.5z"/>
	<path class="st0" d="M414.1,123.7h0.4c6.9-12.3,18.6-17.8,32.5-17.8h6.9v32.8c-5.7-1.8-9.6-1.9-15.1-1.9
		c-19.8,0-24.7,13.1-24.7,30.3v40.5h-35.6V107.2h35.6V123.7z"/>
	<path class="st0" d="M509.7,207.7H474v-71.1h-11.5v-29.4h11.5V77h35.6v30.2h11.4v29.4h-11.4L509.7,207.7z"/>
	<path class="st0" d="M574.3,207.7h-35.7v-71.1h-11.6v-29.4h11.6V77h35.7v30.2h11.4v29.4h-11.4V207.7z"/>
	<path class="st1" d="M618.1,110.5c4,0,7.9-1.2,11.2-3.4c3.3-2.2,5.9-5.4,7.4-9c1.5-3.7,1.9-7.7,1.2-11.6c-0.8-3.9-2.7-7.5-5.5-10.3
		c-2.8-2.8-6.4-4.7-10.3-5.5c-3.9-0.8-8-0.4-11.6,1.1s-6.8,4.1-9,7.4c-2.2,3.3-3.4,7.2-3.4,11.2c0,5.3,2.1,10.4,5.9,14.2
		S612.8,110.5,618.1,110.5z"/>
	<path class="st1" d="M638.3,161.8v-41.6c0-0.8-0.3-1.6-0.9-2.2c-0.6-0.6-1.4-0.9-2.2-0.9h-34.1c-0.4,0-0.8,0.1-1.2,0.2
		c-0.4,0.2-0.7,0.4-1,0.7c-0.3,0.3-0.5,0.6-0.7,1c-0.2,0.4-0.2,0.8-0.2,1.2v41.6c0,0.6-0.1,5.5,2.5,8.8c2.8,3.5,8.3,17.3,8.7,27.7
		c0.4,10.4,8,9.3,8,9.3h1.7c0,0,7.7,1.1,8-9.3c0.4-10.4,5.9-24.2,8.7-27.7C638.4,167.3,638.3,162.4,638.3,161.8L638.3,161.8z"/>
	<g>
		<path class="st0" d="M203.7,270.7l8.1-23.6h4.3l7.8,23.6h-3.7l-1.8-5.6h-9.1l-1.9,5.6H203.7z M210.2,262.4h7.3l-3.7-11
			L210.2,262.4z"/>
		<path class="st0" d="M228.5,270.7v-17.8h3.1l0.5,3.8v13.9H228.5z M241,270.7v-10.4c0-1.5-0.4-2.7-1.1-3.5c-0.7-0.8-1.7-1.2-3-1.2
			c-1,0-1.8,0.3-2.6,0.8c-0.7,0.5-1.3,1.3-1.7,2.3c-0.4,1-0.6,2.3-0.6,3.8h-1.3c0-2.2,0.3-4,0.8-5.5s1.4-2.6,2.4-3.4
			c1-0.8,2.3-1.2,3.8-1.2c1.4,0,2.6,0.3,3.6,1c1,0.6,1.7,1.6,2.3,2.7s0.8,2.6,0.8,4.2v10.4H241z"/>
	</g>
	<g>
		<path class="st0" d="M489.6,271.3c-2.1,0-3.9-0.5-5.4-1.5s-2.7-2.5-3.5-4.3s-1.2-4-1.2-6.5c0-2.6,0.4-4.9,1.3-6.7
			c0.9-1.8,2.1-3.2,3.6-4.1c1.5-0.9,3.3-1.4,5.2-1.4c2.6,0,4.7,0.6,6.2,1.9c1.5,1.3,2.6,3,3.1,5l-3.8,0.7c-0.4-1.4-1.1-2.5-2.1-3.3
			s-2.1-1.2-3.4-1.2c-1.2,0-2.2,0.3-3.2,1s-1.7,1.7-2.3,3c-0.6,1.3-0.9,3-0.9,4.9c0,1.8,0.2,3.4,0.7,4.8c0.5,1.4,1.2,2.4,2.1,3.2
			s2.1,1.1,3.5,1.1c1.7,0,3.1-0.5,4.1-1.4c1-0.9,1.5-2.1,1.5-3.6h3.8c0,1.7-0.4,3.2-1.2,4.4c-0.8,1.2-1.9,2.1-3.2,2.8
			C493.1,271,491.5,271.3,489.6,271.3z"/>
		<path class="st0" d="M510.9,271.3c-1.6,0-3.1-0.4-4.3-1.1s-2.3-1.8-3-3.1c-0.7-1.4-1.1-3.1-1.1-5.2c0-2.1,0.4-3.8,1.1-5.2
			s1.7-2.4,3-3.1s2.7-1.1,4.3-1.1c1.6,0,3,0.4,4.3,1.1c1.3,0.7,2.3,1.7,3,3.1c0.7,1.4,1.1,3.1,1.1,5.2c0,2-0.4,3.8-1.1,5.2
			c-0.7,1.4-1.7,2.4-3,3.1C513.9,270.9,512.5,271.3,510.9,271.3z M510.8,268.2c1,0,1.9-0.2,2.7-0.7s1.3-1.2,1.7-2.2s0.6-2.1,0.6-3.4
			c0-2-0.4-3.6-1.2-4.7s-2-1.7-3.5-1.7c-1,0-1.9,0.2-2.7,0.7c-0.7,0.5-1.3,1.2-1.7,2.2s-0.6,2.1-0.6,3.5c0,2,0.4,3.5,1.2,4.6
			C508.1,267.7,509.2,268.2,510.8,268.2z"/>
		<path class="st0" d="M524.7,270.8V253h3.1l0.4,3.3c0.6-1.2,1.3-2.2,2.3-2.8c1-0.7,2.2-1,3.5-1c1.4,0,2.6,0.3,3.6,1
			c1,0.6,1.7,1.6,2.3,2.7c0.5,1.2,0.8,2.6,0.8,4.2v10.4h-3.5v-10.4c0-1.5-0.4-2.7-1.1-3.5c-0.7-0.8-1.7-1.2-3-1.2
			c-1,0-1.8,0.3-2.6,0.8c-0.7,0.5-1.3,1.3-1.7,2.3c-0.4,1-0.6,2.3-0.6,3.8v8.2H524.7z M549.4,270.8v-10.4c0-1.5-0.4-2.7-1.1-3.5
			c-0.7-0.8-1.7-1.2-3-1.2c-1.5,0-2.6,0.6-3.4,1.7s-1.2,2.8-1.2,5h-1.5c0-1.7,0.2-3.2,0.5-4.4s0.8-2.3,1.4-3.1s1.4-1.4,2.2-1.8
			c0.9-0.4,1.8-0.6,2.9-0.6c1.4,0,2.6,0.3,3.6,1c1,0.6,1.7,1.6,2.3,2.7c0.5,1.2,0.8,2.6,0.8,4.2v10.4H549.4z"/>
		<path class="st0" d="M559.5,279.5V253h2.9l0.6,4.3v22.3H559.5z M568,271.3c-1.3,0-2.4-0.3-3.4-0.9c-0.9-0.6-1.7-1.4-2.2-2.6
			c-0.5-1.1-0.8-2.6-0.8-4.2h1.4c0,1,0.2,1.8,0.6,2.5s1,1.2,1.7,1.5s1.4,0.5,2.2,0.5c0.8,0,1.6-0.2,2.4-0.7c0.8-0.5,1.4-1.2,1.9-2.1
			c0.5-0.9,0.7-2.1,0.7-3.4c0-1.3-0.2-2.4-0.7-3.3s-1-1.6-1.8-2.1c-0.8-0.5-1.6-0.7-2.5-0.7c-0.8,0-1.5,0.2-2.2,0.6
			s-1.2,0.9-1.7,1.6c-0.4,0.7-0.6,1.6-0.6,2.6h-1.4c0-1.8,0.3-3.3,0.9-4.5c0.6-1.2,1.3-2.1,2.3-2.7c1-0.6,2.1-0.9,3.2-0.9
			c1.4,0,2.7,0.4,3.9,1.1c1.2,0.7,2.2,1.8,3,3.2c0.8,1.4,1.1,3.1,1.1,5s-0.4,3.6-1.1,5.1c-0.8,1.4-1.8,2.5-3,3.2
			C570.7,270.9,569.4,271.3,568,271.3z"/>
		<path class="st0" d="M586.8,271.3c-1.5,0-2.7-0.3-3.7-0.8c-1-0.5-1.7-1.2-2.2-2.1c-0.5-0.9-0.7-1.8-0.7-2.7c0-1.2,0.3-2.1,0.9-2.9
			c0.6-0.8,1.4-1.3,2.5-1.7s2.3-0.6,3.7-0.6c0.9,0,1.9,0.1,2.8,0.3c0.9,0.2,1.8,0.4,2.7,0.7v2.1c-0.7-0.3-1.5-0.5-2.4-0.6
			c-0.9-0.2-1.7-0.2-2.4-0.2c-1.1,0-2.1,0.2-2.8,0.7c-0.8,0.4-1.1,1.2-1.1,2.3c0,0.8,0.3,1.4,0.9,2s1.5,0.8,2.8,0.8
			c0.9,0,1.8-0.2,2.5-0.6c0.7-0.4,1.3-1,1.7-1.6c0.4-0.6,0.6-1.3,0.6-1.9h0.9c0,1.2-0.2,2.4-0.7,3.4c-0.5,1-1.2,1.9-2.2,2.5
			C589.3,271,588.1,271.3,586.8,271.3z M592.7,270.8l-0.4-4.1v-7.4c0-1.5-0.3-2.5-0.9-3.2s-1.6-1-2.9-1c-0.7,0-1.4,0.1-2,0.3
			c-0.6,0.2-1,0.5-1.4,1c-0.3,0.4-0.5,1-0.5,1.6h-3.9c0-1.3,0.3-2.4,1-3.2c0.6-0.8,1.5-1.4,2.7-1.8c1.2-0.4,2.5-0.6,4-0.6
			c1.4,0,2.7,0.2,3.8,0.7s2,1.2,2.6,2.2c0.6,1,0.9,2.3,0.9,3.9v11.4H592.7z"/>
		<path class="st0" d="M602.5,270.8V253h3.1l0.5,3.8v13.9H602.5z M615,270.8v-10.4c0-1.5-0.4-2.7-1.1-3.5c-0.7-0.8-1.7-1.2-3-1.2
			c-1,0-1.8,0.3-2.6,0.8c-0.7,0.5-1.3,1.3-1.7,2.3c-0.4,1-0.6,2.3-0.6,3.8h-1.3c0-2.2,0.3-4,0.8-5.5c0.6-1.5,1.4-2.6,2.4-3.4
			c1-0.8,2.3-1.2,3.8-1.2c1.4,0,2.6,0.3,3.6,1c1,0.6,1.7,1.6,2.3,2.7c0.5,1.2,0.8,2.6,0.8,4.2v10.4H615z"/>
		<path class="st0" d="M622.3,253h3.9l5.4,14.7h-0.7l4.3-14.7h3.6l-6.8,21.2c-0.6,1.9-1.4,3.4-2.4,4.3s-2.2,1.4-3.6,1.4
			c-0.8,0-1.6-0.1-2.3-0.3s-1.5-0.5-2.3-0.9v-3.2c0.7,0.5,1.3,0.8,1.9,1c0.6,0.2,1.3,0.3,1.9,0.3s1.2-0.2,1.7-0.6
			c0.5-0.4,0.9-0.9,1.2-1.6c0.3-0.7,0.6-1.4,0.8-2.2l0.5-1.8L622.3,253z"/>
	</g>
	<g>
		<polygon class="st0" points="646.5,79.2 650.9,79.2 650.9,91 653.4,91 653.4,79.2 657.7,79.2 657.7,77 646.5,77 		"/>
		<polygon class="st0" points="670.8,77 667,85.3 663.1,77 659.5,77 659.5,91 662,91 662,80.5 666.1,89.4 667.8,89.4 671.7,80.8 
			671.7,91 674.3,91 674.3,77 		"/>
	</g>
	<g>
		<rect x="268.5" y="266.3" class="st2" width="24.6" height="4.5"/>
		<g>
			<path class="st0" d="M296.6,270.8v-33.9h13c3.9,0,7,0.9,9.3,2.8c2.3,1.9,3.4,4.6,3.4,8.3c0,3.7-1.1,6.4-3.4,8.3
				c-2.3,1.9-5.4,2.8-9.3,2.8h-4.9v5.2c0,3.5-2.9,6.4-6.4,6.4H296.6z M304.7,252.1h4.9c1.5,0,2.6-0.4,3.3-1.2
				c0.7-0.8,1.1-1.8,1.1-2.9c0-1.1-0.4-2.1-1.1-2.9c-0.8-0.8-1.9-1.2-3.3-1.2h-4.9V252.1z"/>
		</g>
		<path class="st0" d="M268.5,236.9v13.2c0,6.8,5.5,12.3,12.3,12.3h0c6.8,0,12.3-5.5,12.3-12.3v-13.2H268.5z M287.9,248.8
			c0,0.8-0.6,1.4-1.4,1.4H283v3.5c0,0.8-0.6,1.4-1.4,1.4h-1.6c-0.8,0-1.4-0.6-1.4-1.4v-3.5H275c-0.8,0-1.4-0.6-1.4-1.4v-1.6
			c0-0.8,0.6-1.4,1.4-1.4h3.5v-3.5c0-0.8,0.6-1.4,1.4-1.4h1.6c0.8,0,1.4,0.6,1.4,1.4v3.5h3.5c0.8,0,1.4,0.6,1.4,1.4V248.8z"/>
		<path class="st0" d="M324.9,236.9h5.1v14.6h15.9v-14.6h5v33.9h-5v-14.9H330v14.9h-5.1V236.9z"/>
		<path class="st0" d="M368.8,266.3c-1,0.7-2.2,1-3.7,1c-1.5,0-2.8-0.4-3.7-1.1c-1-0.7-1.7-1.7-2.2-3c-0.5-1.3-0.7-2.7-0.7-4.3h17.2
			c0.2-1.8,0.2-3.6-0.2-5.3c-0.3-1.7-0.9-3.3-1.8-4.6c-0.9-1.4-2-2.4-3.4-3.2c-1.4-0.8-3.1-1.2-5.1-1.2c-2.2,0-4.2,0.5-6,1.6
			c-1.8,1.1-3.2,2.6-4.2,4.6c-1,2-1.5,4.4-1.5,7.2c0,2.7,0.5,5,1.6,7s2.4,3.6,4.2,4.7c1.8,1.1,3.8,1.7,6,1.7c1.9,0,3.6-0.3,5.1-1
			c1.5-0.7,2.7-1.6,3.7-2.9c1-1.2,1.6-2.7,1.8-4.4h-5.2C370.4,264.6,369.8,265.6,368.8,266.3z M359.2,252.7c0.5-1.2,1.3-2.2,2.3-3
			c1-0.7,2.2-1.1,3.7-1.1c1.2,0,2.2,0.2,2.9,0.7c0.8,0.5,1.4,1.1,1.8,1.9c0.4,0.8,0.7,1.7,0.9,2.6c0.1,0.7,0.2,1.4,0.2,2.1h-12.5
			C358.6,254.8,358.8,253.7,359.2,252.7z"/>
		<path class="st0" d="M399.1,248.7c-0.9-1.5-2.1-2.5-3.7-3.2c-1.6-0.7-3.4-1-5.5-1c-2.2,0-4.2,0.3-5.8,0.8
			c-1.7,0.5-2.9,1.4-3.9,2.6c-0.9,1.2-1.4,2.7-1.4,4.6h5.6c0-0.9,0.2-1.7,0.7-2.3c0.5-0.6,1.1-1.1,1.9-1.4c0.8-0.3,1.8-0.5,2.8-0.5
			c1.9,0,3.3,0.5,4.1,1.4c0.9,0.9,1.3,2.5,1.3,4.6v3.1c-1.1-0.3-2.2-0.6-3.4-0.8c-1.3-0.2-2.6-0.4-4-0.4c-2,0-3.7,0.3-5.3,0.8
			c-1.5,0.5-2.7,1.3-3.6,2.4c-0.9,1.1-1.3,2.5-1.3,4.2c0,1.4,0.3,2.7,1.1,3.9c0.7,1.2,1.8,2.2,3.2,3c1.4,0.8,3.2,1.1,5.3,1.1
			c1.9,0,3.6-0.5,4.9-1.4c1.4-0.9,2.4-2.1,3.1-3.6c0,0,0,0,0,0l0.5,4.3h4.4v-16.4C400.4,252.1,400,250.2,399.1,248.7z M392.1,266.7
			c-1,0.6-2.2,0.9-3.6,0.9c-1.8,0-3.2-0.4-4-1.2c-0.9-0.8-1.3-1.8-1.3-2.9c0-1.5,0.5-2.6,1.6-3.2c1.1-0.6,2.4-1,4-1
			c1.1,0,2.2,0.1,3.5,0.3c1.1,0.2,2.1,0.4,3,0.7v1.2c0,0.9-0.3,1.8-0.9,2.8C393.9,265.3,393.1,266,392.1,266.7z"/>
		<path class="st0" d="M404.4,270.8v-36.3h5.1v36.3H404.4z"/>
		<path class="st0" d="M427.7,266.5c-0.8,0.3-1.6,0.5-2.2,0.7c-0.7,0.2-1.3,0.2-2,0.2c-2.3,0-3.4-1.2-3.4-3.6v-15.2h7.6v-3.4H420v-7
			h-5v7h-3.9v3.4h3.9V264c0,1.7,0.3,3.1,1,4.2c0.7,1.1,1.6,1.9,2.8,2.5c1.2,0.5,2.5,0.8,3.9,0.8c1,0,1.9-0.1,2.9-0.4
			c0.9-0.3,1.8-0.6,2.8-1L427.7,266.5z"/>
		<path class="st0" d="M452.5,249.8c-0.7-1.7-1.8-3-3.3-3.9c-1.4-0.9-3.2-1.4-5.2-1.4c-2.1,0-3.9,0.6-5.4,1.7
			c-1.2,0.9-2.1,2-2.9,3.5v-15.3h-5.1v36.3h5.1V259c0-2.1,0.3-3.9,0.9-5.4c0.6-1.5,1.4-2.6,2.4-3.4c1.1-0.8,2.3-1.2,3.7-1.2
			c1.8,0,3.2,0.6,4.3,1.7c1.1,1.1,1.6,2.8,1.6,5v15h5v-15C453.6,253.5,453.3,251.5,452.5,249.8z"/>
		<g>
			<polygon class="st0" points="455.5,266.9 456.9,266.9 456.9,270.8 457.7,270.8 457.7,266.9 459.1,266.9 459.1,266.2 455.5,266.2 
							"/>
			<polygon class="st0" points="463.4,266.2 462.1,268.9 460.9,266.2 459.7,266.2 459.7,270.8 460.5,270.8 460.5,267.4 461.9,270.3 
				462.4,270.3 463.7,267.5 463.7,270.8 464.5,270.8 464.5,266.2 			"/>
		</g>
	</g>
</g>
<g id="Layer_2">
</g>
</svg>
