<svg width="80" height="80" viewBox="0 0 80 80" fill="none" xmlns="http://www.w3.org/2000/svg">
<path d="M71 40C71 57.6732 56.6732 72 39 72C21.3268 72 7 57.6732 7 40C7 22.3268 21.3268 8 39 8C56.6732 8 71 22.3268 71 40Z" fill="#A1C5D8"/>
<path d="M34.4284 40C34.4284 41.0819 33.5513 41.9591 32.4694 41.9591C31.3875 41.9591 30.5104 41.0819 30.5104 40C30.5104 38.9182 31.3875 38.041 32.4694 38.041C33.5513 38.041 34.4284 38.9182 34.4284 40ZM39 38.041C37.9181 38.041 37.041 38.9182 37.041 40C37.041 41.0819 37.9181 41.9591 39 41.9591C40.0819 41.9591 40.959 41.0819 40.959 40C40.959 38.9182 40.0819 38.041 39 38.041ZM45.5306 38.041C44.4488 38.041 43.5716 38.9182 43.5716 40C43.5716 41.0819 44.4488 41.9591 45.5306 41.9591C46.6125 41.9591 47.4896 41.0819 47.4896 40C47.4896 38.9182 46.6125 38.041 45.5306 38.041Z" fill="#F6C77E"/>
<path d="M64.6296 36.1497L60.5943 35.2531C60.0311 32.681 59.0216 30.2756 57.6487 28.1244L59.8898 24.7625C60.9502 23.1719 60.7405 21.0541 59.3891 19.7026C58.0601 18.3731 55.9862 18.1455 54.4006 19.155L50.9124 21.3741C48.7637 19.9972 46.3603 18.9832 43.7892 18.4151L42.9969 14.4541C42.6225 12.5794 40.9765 11.2305 39.0649 11.2305C37.1852 11.2305 35.5577 12.536 35.1503 14.3707L34.2532 18.4061C31.6811 18.9687 29.2757 19.9787 27.1245 21.3511L23.7626 19.11C22.172 18.0496 20.0542 18.2593 18.7028 19.6113C17.3738 20.9403 17.1461 23.0141 18.1551 24.5997L20.3747 28.0874C18.9973 30.2362 17.9833 32.6395 17.4152 35.2106L13.4542 36.0029C11.58 36.3779 10.2306 38.0239 10.2306 39.9355C10.2306 41.8146 11.5361 43.4421 13.3708 43.85L17.4062 44.7467C17.9694 47.3193 18.9788 49.7241 20.3518 51.8754L18.1101 55.2373C17.0498 56.8279 17.2594 58.9456 18.6114 60.2971C19.9404 61.6266 22.0142 61.8542 23.5998 60.8448L27.0875 58.6256C29.2363 60.0025 31.6401 61.0165 34.2107 61.5846L35.003 65.5456C35.378 67.4203 37.024 68.7698 38.9356 68.7698C40.8152 68.7698 42.4423 67.4642 42.8502 65.629L43.7468 61.5936C46.3194 61.031 48.7242 60.0215 50.8755 58.6486L54.2374 60.8897C55.828 61.9501 57.9458 61.7404 59.2977 60.389C60.6267 59.0595 60.8544 56.9861 59.8454 55.4L57.6258 51.9123C59.0032 49.7636 60.0171 47.3602 60.5848 44.7891L64.5458 43.9968C66.4204 43.6219 67.7699 41.9764 67.7699 40.0648C67.7699 38.1851 66.4644 36.5576 64.6296 36.1497ZM39 52.426C32.1374 52.426 26.5738 46.8625 26.5738 39.9999C26.5738 33.1373 32.1374 27.5737 39 27.5737C45.8626 27.5737 51.4262 33.1373 51.4262 39.9999C51.4262 46.8625 45.8626 52.426 39 52.426Z" fill="#146F9D" fill-opacity="0.9"/>
<path d="M43.5311 62.565L42.8502 65.6294C42.4423 67.4641 40.8152 68.7696 38.9356 68.7696C37.024 68.7696 35.378 67.4202 35.003 65.5455L34.2107 61.5845C31.6396 61.0169 29.2363 60.0029 27.0875 58.6255L23.5998 60.8451C22.0142 61.8541 19.9404 61.6265 18.6114 60.2975C17.2594 58.9455 17.0498 56.8277 18.1101 55.2371L20.3513 51.8752C18.9788 49.724 17.9689 47.3191 17.4062 44.7465L13.3708 43.8499C11.5361 43.442 10.2306 41.815 10.2306 39.9353C10.2306 38.0237 11.5795 36.3777 13.4542 36.0028L16.4262 35.4087C18.4097 49.4469 29.5009 60.5556 43.5311 62.565Z" fill="#146F9D"/>
<path d="M39 22.3975C29.2782 22.3975 21.3972 30.2785 21.3972 40.0003C21.3972 49.722 29.2782 57.6036 39 57.6036C48.7218 57.6036 56.6033 49.722 56.6033 40.0003C56.6033 30.2785 48.7218 22.3975 39 22.3975ZM39 52.4265C32.1374 52.4265 26.5738 46.8629 26.5738 40.0003C26.5738 33.1377 32.1374 27.5741 39 27.5741C45.8626 27.5741 51.4262 33.1377 51.4262 40.0003C51.4262 46.8629 45.8626 52.4265 39 52.4265Z" fill="#8AD8ED"/>
<path d="M56.5849 39.1889C57.0377 49.2796 48.9909 57.6035 39 57.6035C37.3031 57.6035 35.6626 57.3624 34.1099 56.9135C33.0021 56.593 32.2408 55.5771 32.2408 54.4243C32.2408 52.7079 33.8833 51.4548 35.5313 51.9341C36.6321 52.2546 37.7958 52.4263 39 52.4263C46.0184 52.4263 51.6778 46.6077 51.4177 39.5314C51.1761 32.9698 45.7463 27.6694 39.1807 27.5755C37.9246 27.5575 36.711 27.7268 35.5647 28.0568C33.9017 28.5355 32.2408 27.3074 32.2408 25.577V25.5765C32.2408 24.4213 33.0061 23.4058 34.1159 23.0853C35.9621 22.5526 37.9321 22.3135 39.9735 22.4238C48.9449 22.9086 56.182 30.2135 56.5849 39.1889Z" fill="#D0EFF8"/>
<path d="M46.1182 32.6857H41.7428C40.661 32.6857 39.7838 31.8086 39.7838 30.7267V14.3999C39.7838 13.3181 40.661 12.4409 41.7428 12.4409H46.1182C47.2006 12.4409 48.0777 13.3181 48.0777 14.3999V30.7267C48.0777 31.8086 47.2006 32.6857 46.1182 32.6857Z" fill="#DC6243"/>
<path d="M72.4368 14.3999V30.7267C72.4368 31.8086 71.5596 32.6857 70.4778 32.6857H51.7127L49.1706 36.4995C48.0388 38.1969 46.1342 39.2163 44.0938 39.2163C43.7333 39.2163 43.4408 38.9243 43.4408 38.5633V14.3999C43.4408 13.3181 44.3179 12.4409 45.4003 12.4409H70.4778C71.5596 12.4409 72.4368 13.3181 72.4368 14.3999Z" fill="#E6917B"/>
<path d="M69.5632 16.8815V18.1875C69.5632 18.5485 69.2711 18.8411 68.9102 18.8411H54.5429C54.1825 18.8411 53.8899 18.5485 53.8899 18.1875V16.8815C53.8899 16.5211 54.1825 16.2285 54.5429 16.2285H68.9102C69.2711 16.2285 69.5632 16.5211 69.5632 16.8815ZM68.9102 20.8001H54.5429C54.1825 20.8001 53.8899 21.0926 53.8899 21.4531V22.7591C53.8899 23.1196 54.1825 23.4121 54.5429 23.4121H68.9102C69.2711 23.4121 69.5632 23.1196 69.5632 22.7591V21.4531C69.5632 21.0926 69.2711 20.8001 68.9102 20.8001ZM63.6856 25.3717H54.5429C54.1825 25.3717 53.8899 25.6637 53.8899 26.0247V27.3307C53.8899 27.6911 54.1825 27.9837 54.5429 27.9837H63.6856C64.0465 27.9837 64.3391 27.6911 64.3391 27.3307V26.0247C64.3391 25.6637 64.0465 25.3717 63.6856 25.3717Z" fill="#F1C0B4"/>
<path d="M45.6614 21.584V16.3594C45.6614 15.2771 46.5386 14.3999 47.6204 14.3999C48.7023 14.3999 49.5795 15.2771 49.5795 16.3594V21.584C49.5795 22.6659 48.7023 23.543 47.6204 23.543C46.5386 23.543 45.6614 22.6659 45.6614 21.584ZM47.6204 25.1102C46.3219 25.1102 45.2695 26.1631 45.2695 27.4611C45.2695 28.7596 46.3219 29.8125 47.6204 29.8125C48.919 29.8125 49.9714 28.7596 49.9714 27.4611C49.9714 26.1631 48.919 25.1102 47.6204 25.1102Z" fill="#FDF3E3"/>
<path d="M49.9714 27.4609C49.9714 28.4844 49.3164 29.3526 48.4042 29.6756C47.4916 29.3526 46.8366 28.4844 46.8366 27.4609C46.8366 26.438 47.4916 25.5698 48.4042 25.2468C49.3164 25.5698 49.9714 26.438 49.9714 27.4609ZM48.4042 23.3786C49.0957 23.0766 49.5795 22.3871 49.5795 21.5838V16.3592C49.5795 15.556 49.0957 14.8665 48.4042 14.564C47.7123 14.8665 47.2285 15.556 47.2285 16.3592V21.5838C47.2285 22.3866 47.7123 23.0761 48.4042 23.3786Z" fill="#FFFEFE"/>
</svg>
